<svg width="100" height="100" xmlns="http://www.w3.org/2000/svg" xmlns:xlink="http://www.w3.org/1999/xlink"><defs><filter x="-8.3%" y="-5.9%" width="116.7%" height="111.8%" filterUnits="objectBoundingBox" id="c"><feOffset dy="2" in="SourceAlpha" result="shadowOffsetOuter1"/><feColorMatrix values="0 0 0 0 0 0 0 0 0 0 0 0 0 0 0 0 0 0 0.0963541667 0" in="shadowOffsetOuter1" result="shadowMatrixOuter1"/><feMerge><feMergeNode in="shadowMatrixOuter1"/><feMergeNode in="SourceGraphic"/></feMerge></filter><filter x="-.5%" y="-.5%" width="101%" height="101.8%" filterUnits="objectBoundingBox" id="e"><feOffset dy=".25" in="SourceAlpha" result="shadowOffsetOuter1"/><feColorMatrix values="0 0 0 0 1 0 0 0 0 1 0 0 0 0 1 0 0 0 0.249094203 0" in="shadowOffsetOuter1"/></filter><filter x="-13.3%" y="-11.1%" width="126.7%" height="122.2%" filterUnits="objectBoundingBox" id="g"><feOffset dy="2" in="SourceAlpha" result="shadowOffsetOuter1"/><feColorMatrix values="0 0 0 0 0 0 0 0 0 0 0 0 0 0 0 0 0 0 0.102723053 0" in="shadowOffsetOuter1" result="shadowMatrixOuter1"/><feMerge><feMergeNode in="shadowMatrixOuter1"/><feMergeNode in="SourceGraphic"/></feMerge></filter><filter x="-12.5%" y="-10.4%" width="125%" height="120.8%" filterUnits="objectBoundingBox" id="i"><feOffset dx="3" dy="5" in="SourceAlpha" result="shadowOffsetInner1"/><feComposite in="shadowOffsetInner1" in2="SourceAlpha" operator="arithmetic" k2="-1" k3="1" result="shadowInnerInner1"/><feColorMatrix values="0 0 0 0 0 0 0 0 0 0 0 0 0 0 0 0 0 0 0.0977977808 0" in="shadowInnerInner1"/></filter><path d="M3.789 1.332h-.755c-.39 0-.708-.216-.708-.483v-.31c0-.267.317-.483.708-.483H23.03c.39 0 .706.216.706.483v.31c0 .267-.316.483-.706.483h-.755V4.32h3.666v4.889a3.666 3.666 0 01-3.84 3.661 9.256 9.256 0 01-6.988 7.212v3.347h4.663c.135 0 .246.11.246.247v2.734h3.008c.39 0 .706.217.706.484v.31c0 .267-.316.483-.706.483H3.034c-.39 0-.708-.216-.708-.484v-.31c0-.267.317-.484.708-.484H6.04v-2.734c0-.137.111-.247.247-.247h5.186v-3.243a9.25 9.25 0 01-7.511-7.316 3.666 3.666 0 01-3.84-3.662V4.32h3.666V1.332z" id="f"/><path d="M24.748 24.446l-7.9-19.753a2 2 0 00-3.715 0l-8 20a2.003 2.003 0 00.502 2.215 2.002 2.002 0 002.25.317l7.105-3.553 7.105 3.553a2 2 0 00.914.211 2 2 0 001.74-2.99" id="h"/><linearGradient x1="50%" y1="100%" x2="50%" y2="0%" id="b"><stop stop-color="#FFF" stop-opacity=".738" offset="0%"/><stop stop-opacity=".151" offset="100%"/></linearGradient><rect id="a" x="0" y="0" width="96" height="96" rx="48"/></defs><g fill="none" fill-rule="evenodd"><g transform="translate(2 2)"><mask id="d" fill="#fff"><use xlink:href="#a"/></mask><use fill="#55A2FF" xlink:href="#a"/><use fill-opacity=".75" fill="url(#b)" style="mix-blend-mode:overlay" xlink:href="#a"/><g filter="url(#c)" mask="url(#d)"><path d="M25 70v6c.007 1.194.838 2.002 2 2h44v-8H25z" fill="#BE9555" fill-rule="nonzero"/><path d="M27 71v4c.034 1.105.92 2.002 1.956 2H71v-6H27z" fill="#FFF" fill-rule="nonzero"/><path fill="#4F4D52" fill-rule="nonzero" opacity=".2" d="M27 71v1h44v-1z"/><path fill="#4F4D52" fill-rule="nonzero" opacity=".2" d="M45 71l6 6h-6z"/><path fill="#EF6F59" fill-rule="nonzero" d="M46 81l-4-2-3 2V71h7z"/><path fill="#F7CB64" fill-rule="nonzero" d="M71 70H25V15h46z"/><path d="M48 66a2 2 0 01-2 2H25v2h46V18H50c-1.106 0-2 .895-2 2v46z" fill-opacity=".127" fill="#000"/></g><g mask="url(#d)"><g transform="translate(35 28.47)"><use fill="#000" filter="url(#e)" xlink:href="#f"/><use fill="#4C3B12" xlink:href="#f"/><circle fill="#F7CB64" cx="13.032" cy="10.15" r="4"/></g></g><g filter="url(#g)" mask="url(#d)"><g transform="translate(49 41)"><rect fill="#FFF" transform="rotate(-30 20 24.096)" x="17.5" y="12.096" width="5" height="24" rx="1"/><g transform="rotate(-30 15 15.436)"><use fill="#FFF" xlink:href="#h"/><use fill="#000" filter="url(#i)" xlink:href="#h"/></g></g></g></g><rect stroke="#E1E1E1" stroke-width="4" x="2" y="2" width="96" height="96" rx="48"/></g></svg>